<?xml version="1.0" encoding="UTF-8"?>
<svg width="512" height="512" viewBox="0 0 512 512" fill="none" xmlns="http://www.w3.org/2000/svg">
  <rect width="512" height="512" rx="128" fill="url(#paint0_linear)"/>
  <path d="M256 128C176.5 128 112 192.5 112 272C112 351.5 176.5 416 256 416C335.5 416 400 351.5 400 272C400 192.5 335.5 128 256 128ZM256 384C194.1 384 144 333.9 144 272C144 210.1 194.1 160 256 160C317.9 160 368 210.1 368 272C368 333.9 317.9 384 256 384Z" fill="white"/>
  <path d="M256 192C211.8 192 176 227.8 176 272C176 316.2 211.8 352 256 352C300.2 352 336 316.2 336 272C336 227.8 300.2 192 256 192ZM256 320C229.5 320 208 298.5 208 272C208 245.5 229.5 224 256 224C282.5 224 304 245.5 304 272C304 298.5 282.5 320 256 320Z" fill="#60A5FA"/>
  <circle cx="256" cy="272" r="32" fill="#3B82F6"/>
  <path d="M256 256C247.2 256 240 263.2 240 272C240 280.8 247.2 288 256 288C264.8 288 272 280.8 272 272C272 263.2 264.8 256 256 256Z" fill="white"/>
  <defs>
    <linearGradient id="paint0_linear" x1="0" y1="0" x2="512" y2="512" gradientUnits="userSpaceOnUse">
      <stop stop-color="#1E3A8A"/>
      <stop offset="0.5" stop-color="#3B82F6"/>
      <stop offset="1" stop-color="#8B5CF6"/>
    </linearGradient>
  </defs>
</svg>