<?xml version="1.0" encoding="UTF-8" standalone="no"?>
<svg width="800px" height="800px" viewBox="0 0 800 800" version="1.1" xmlns="http://www.w3.org/2000/svg" xmlns:xlink="http://www.w3.org/1999/xlink">
  <g stroke="currentColor" fill="none" stroke-width="2">
    <!-- Horizontal lines -->
    <line x1="0" y1="100" x2="800" y2="100" />
    <line x1="0" y1="300" x2="800" y2="300" />
    <line x1="0" y1="500" x2="800" y2="500" />
    <line x1="0" y1="700" x2="800" y2="700" />
    
    <!-- Vertical lines -->
    <line x1="100" y1="0" x2="100" y2="800" />
    <line x1="300" y1="0" x2="300" y2="800" />
    <line x1="500" y1="0" x2="500" y2="800" />
    <line x1="700" y1="0" x2="700" y2="800" />
    
    <!-- Circles at intersections -->
    <circle cx="100" cy="100" r="5" />
    <circle cx="100" cy="300" r="5" />
    <circle cx="100" cy="500" r="5" />
    <circle cx="100" cy="700" r="5" />
    
    <circle cx="300" cy="100" r="5" />
    <circle cx="300" cy="300" r="5" />
    <circle cx="300" cy="500" r="5" />
    <circle cx="300" cy="700" r="5" />
    
    <circle cx="500" cy="100" r="5" />
    <circle cx="500" cy="300" r="5" />
    <circle cx="500" cy="500" r="5" />
    <circle cx="500" cy="700" r="5" />
    
    <circle cx="700" cy="100" r="5" />
    <circle cx="700" cy="300" r="5" />
    <circle cx="700" cy="500" r="5" />
    <circle cx="700" cy="700" r="5" />
    
    <!-- Diagonal connections -->
    <path d="M100,100 C150,150 250,150 300,100" />
    <path d="M300,300 C350,350 450,350 500,300" />
    <path d="M500,500 C550,550 650,550 700,500" />
    <path d="M100,500 C150,450 250,450 300,500" />
    <path d="M300,700 C350,650 450,650 500,700" />
    
    <!-- Circuit elements -->
    <rect x="195" y="195" width="10" height="10" />
    <rect x="395" y="395" width="10" height="10" />
    <rect x="595" y="595" width="10" height="10" />
    <rect x="195" y="595" width="10" height="10" />
    <rect x="595" y="195" width="10" height="10" />
  </g>
</svg>